<svg width="62" height="62" viewBox="0 0 62 62" fill="none" xmlns="http://www.w3.org/2000/svg">
<path d="M48.2234 9.43391C48.1618 9.47551 48.0815 9.53359 47.9841 9.61263C47.7447 9.80694 47.4325 10.0913 47.0691 10.4417C46.3445 11.1405 45.4444 12.0786 44.5691 13.0365C43.6937 13.9943 42.8494 14.965 42.2361 15.7269C41.9283 16.1092 41.6851 16.4317 41.5261 16.6693C41.4741 16.747 41.4355 16.8109 41.407 16.8607C41.4261 16.8967 41.4479 16.9448 41.4812 17.0023C41.5715 17.1582 41.6958 17.3573 41.8445 17.5872C42.1415 18.0465 42.5254 18.611 42.907 19.1615C43.288 19.7112 43.6646 20.2443 43.946 20.64C43.9901 20.7018 44.0321 20.7601 44.071 20.8148L48.3835 16.5013L48.7371 16.1478L49.0906 16.5013L51.9216 19.3333C53.8271 21.2388 55.3874 23.4405 55.99 25.5159C56.2848 26.5313 56.4174 27.3885 56.3748 28.262C56.3323 29.1328 56.1174 29.9896 55.7556 31.0033L55.7546 31.0023C55.0135 33.111 53.537 34.7052 51.616 36.6263C49.6248 38.6174 47.3736 40.0158 45.3005 40.7493L45.2986 40.7503C43.1659 41.4992 41.5105 41.2278 39.4597 40.6292L39.4568 40.6283C37.3127 39.9912 36.2665 38.8755 34.323 36.932L31.4919 34.0999L31.1169 33.7259L31.5125 33.3734L31.5134 33.3724C31.514 33.3719 31.5152 33.3714 31.5164 33.3704C31.5189 33.3682 31.523 33.3642 31.5281 33.3597C31.5382 33.3506 31.5535 33.3372 31.573 33.3197C31.6125 33.2843 31.6701 33.2319 31.7439 33.1654C31.8918 33.0321 32.1041 32.8408 32.3582 32.6087C32.8665 32.1445 33.5436 31.518 34.2214 30.8695C34.9007 30.2196 35.5746 29.5528 36.0789 29.0052C36.332 28.7303 36.5351 28.4939 36.6726 28.3099C36.7211 28.2449 36.7572 28.1907 36.7839 28.1478C36.7479 28.089 36.6957 28.012 36.6238 27.9163C36.4441 27.6774 36.1772 27.3641 35.8455 26.9974C35.1841 26.2664 34.2943 25.3557 33.3972 24.4632C32.5013 23.5719 31.6036 22.703 30.9294 22.057C30.5925 21.7341 30.3115 21.4669 30.115 21.2806C30.0168 21.1875 29.939 21.1153 29.8865 21.0658C29.8603 21.0411 29.8404 21.0218 29.8269 21.0091C29.8231 21.0055 29.8199 21.0019 29.8171 20.9993C29.8077 20.9918 29.7938 20.9815 29.7771 20.9681C29.7392 20.9378 29.6835 20.8926 29.6111 20.8353C29.4658 20.7203 29.2542 20.5552 28.9919 20.3538C28.4667 19.9506 27.7372 19.4042 26.9226 18.8333C25.2709 17.6757 23.341 16.4688 22.0339 16.0824H22.032C19.3424 15.2771 16.6536 15.2925 13.9529 16.1312L13.95 16.1322C11.2495 16.9549 8.64497 18.6052 6.13843 21.1116C3.62414 23.6259 1.96593 26.2476 1.1355 28.973L1.13452 28.9749C0.296528 31.6907 0.288957 34.4122 1.11206 37.1527C1.51518 38.4771 2.76782 40.4539 3.96851 42.1488C4.56091 42.985 5.12733 43.7343 5.54565 44.2747C5.75469 44.5448 5.92629 44.7627 6.04565 44.9124C6.10531 44.9873 6.15186 45.0453 6.18335 45.0843C6.19909 45.1038 6.2115 45.1184 6.21948 45.1283C6.22255 45.132 6.22543 45.1347 6.22729 45.137C6.22856 45.1384 6.22977 45.1404 6.2312 45.1419L6.48901 45.4232C6.66546 45.6151 6.91856 45.8891 7.22437 46.2181C7.83651 46.8766 8.65925 47.7544 9.50464 48.6302C10.3513 49.5073 11.2159 50.378 11.9109 51.0257C12.2593 51.3504 12.5573 51.6111 12.7849 51.7874C12.8727 51.8554 12.9448 51.9046 12.9998 51.9398C13.0674 51.9013 13.157 51.8462 13.2673 51.7699C13.5216 51.5938 13.8557 51.3356 14.2449 51.0169C15.0213 50.3811 15.9921 49.5229 16.9363 48.6361C17.8813 47.7484 18.7912 46.8398 19.45 46.1048C19.7807 45.7358 20.0387 45.4214 20.2048 45.181C20.2807 45.0712 20.3286 44.9882 20.3562 44.931C20.3522 44.9215 20.3476 44.9109 20.3425 44.8997C20.3148 44.8391 20.2754 44.7633 20.2234 44.6722C20.1191 44.4895 19.9756 44.2645 19.8025 44.0101C19.4568 43.5022 19.0096 42.8992 18.5642 42.3177C18.1197 41.7374 17.6805 41.1831 17.3523 40.7738C17.2816 40.6856 17.2163 40.604 17.157 40.5306L12.4656 45.222L8.5896 41.346C7.06512 39.8144 6.14013 38.7789 5.58276 36.9027V36.9007C4.98403 34.8496 4.71254 33.1939 5.46167 31.0609L5.46265 31.0599C6.19616 28.9868 7.5946 26.7357 9.58569 24.7445C11.5074 22.8228 13.102 21.3448 15.2117 20.6038C16.2241 20.2426 17.08 20.0271 17.95 19.9847C18.8236 19.9421 19.6807 20.0756 20.696 20.3704C22.7715 20.973 24.9732 22.5333 26.8787 24.4388L29.7107 27.2699L30.0847 27.6439L29.6892 27.9964L29.6882 27.9974C29.6876 27.9979 29.6864 27.9984 29.6853 27.9993C29.6828 28.0016 29.6796 28.0056 29.6746 28.0101C29.6644 28.0192 29.6485 28.0324 29.6287 28.0501C29.5891 28.0856 29.5309 28.1386 29.4568 28.2054C29.3084 28.3391 29.096 28.5305 28.8416 28.763C28.3319 29.2286 27.6533 29.8565 26.9744 30.5062C26.2939 31.1573 25.6185 31.8255 25.115 32.3724C24.8624 32.6467 24.6612 32.8823 24.5251 33.0648C24.4806 33.1245 24.4472 33.1748 24.4216 33.2152C24.4567 33.2697 24.5052 33.3408 24.572 33.4271C24.7484 33.6547 25.0098 33.9525 25.3347 34.3011C25.9824 34.9961 26.8532 35.8598 27.7302 36.7064C28.606 37.5517 29.4828 38.3755 30.1414 38.9876C30.4705 39.2936 30.7453 39.5465 30.9373 39.723L31.2302 39.9915L31.2312 39.9925C31.241 40.0005 31.2566 40.0129 31.2761 40.0286C31.3152 40.0601 31.3733 40.1068 31.448 40.1663C31.5977 40.2857 31.8149 40.4575 32.0847 40.6663C32.6251 41.0846 33.3745 41.6511 34.2107 42.2435C35.8002 43.3696 37.6381 44.5421 38.9529 45.0159L39.2068 45.0999C41.9474 45.9231 44.6695 45.9156 47.3855 45.0775L47.3875 45.0765C50.1127 44.246 52.7336 42.5878 55.2478 40.0736C57.7546 37.5668 59.4046 34.9617 60.2273 32.2611L60.2283 32.2591L60.3757 31.7523C61.0655 29.2219 61.033 26.7014 60.2781 24.18L60.2771 24.1781C59.8906 22.871 58.6837 20.9412 57.5261 19.2894C56.9552 18.4748 56.4098 17.7453 56.0066 17.22C55.8052 16.9577 55.6392 16.7463 55.5242 16.6009C55.4668 16.5284 55.4216 16.4727 55.3914 16.4349C55.3762 16.416 55.3649 16.4015 55.3572 16.3919C55.355 16.3892 55.3529 16.387 55.3513 16.3851C55.3386 16.3716 55.3194 16.3517 55.2947 16.3255C55.2451 16.273 55.172 16.1953 55.0789 16.097C54.8925 15.9004 54.6253 15.6194 54.3025 15.2825C53.6564 14.6084 52.7875 13.7106 51.8962 12.8148C51.0039 11.9178 50.0939 11.0278 49.363 10.3665C48.9964 10.0348 48.6831 9.76791 48.4441 9.58821C48.3541 9.52053 48.2807 9.46968 48.2234 9.43391Z" fill="#FE5F55" stroke="#131313"/>
<path d="M51.9388 48.2175C51.9027 48.1604 51.8526 48.086 51.7836 47.9958C51.6121 47.7718 51.3614 47.4807 51.0502 47.1423C50.4295 46.4675 49.5946 45.6336 48.7406 44.8239C47.8865 44.0142 47.0205 43.2359 46.3373 42.6726C45.9945 42.3899 45.7065 42.1686 45.4935 42.0251C45.4233 41.9778 45.3661 41.9433 45.3226 41.9187C45.2653 41.9416 45.1937 41.9701 45.1097 42.0066C44.9264 42.0862 44.6905 42.1936 44.4203 42.3191C43.8804 42.5697 43.2105 42.89 42.556 43.2068C41.9017 43.5235 41.2642 43.8361 40.7904 44.0691C40.7352 44.0962 40.6827 44.1233 40.6322 44.1482L44.8685 48.3835L45.222 48.737L44.8685 49.0905L42.0365 51.9216C40.1311 53.827 37.9293 55.3874 35.8539 55.99C34.8385 56.2847 33.9814 56.4173 33.1078 56.3747C32.237 56.3323 31.3802 56.1174 30.3666 55.7556L30.3676 55.7546C28.2588 55.0135 26.6646 53.537 24.7435 51.6159C22.7525 49.6248 21.354 47.3736 20.6205 45.3005L20.6195 45.2986C19.8706 43.1659 20.142 41.5105 20.7406 39.4597L20.7416 39.4568C21.3786 37.3127 22.4943 36.2665 24.4379 34.323L27.2699 31.4919L27.6439 31.1169L27.9965 31.5124L27.9974 31.5134C27.998 31.514 27.9984 31.5152 27.9994 31.5163C28.0017 31.5189 28.0056 31.523 28.0101 31.528C28.0192 31.5382 28.0327 31.5534 28.0502 31.573C28.0855 31.6124 28.138 31.67 28.2045 31.7439C28.3377 31.8918 28.5291 32.1041 28.7611 32.3581C29.2254 32.8664 29.8518 33.5436 30.5004 34.2214C31.1503 34.9006 31.817 35.5745 32.3646 36.0788C32.6395 36.3319 32.8759 36.5351 33.0599 36.6726C33.1249 36.7211 33.1791 36.7571 33.222 36.7839C33.2808 36.7479 33.3579 36.6957 33.4535 36.6237C33.6925 36.4441 34.0058 36.1772 34.3724 35.8454C35.1034 35.1841 36.0141 34.2943 36.9066 33.3972C37.7979 32.5012 38.6668 31.6036 39.3129 30.9294C39.6358 30.5925 39.9029 30.3115 40.0892 30.115C40.1823 30.0168 40.2545 29.939 40.3041 29.8864C40.3288 29.8603 40.348 29.8404 40.3607 29.8269C40.3643 29.8231 40.3679 29.8199 40.3705 29.8171C40.3781 29.8077 40.3883 29.7938 40.4017 29.7771C40.4321 29.7392 40.4772 29.6835 40.5345 29.6111C40.6495 29.4657 40.8147 29.2542 41.016 28.9919C41.4192 28.4667 41.9656 27.7372 42.5365 26.9226C43.6941 25.2708 44.901 23.3409 45.2875 22.0339V22.032C46.0928 19.3424 46.0773 16.6536 45.2386 13.9529L45.2377 13.9499C44.415 11.2495 42.7646 8.64494 40.2582 6.1384C37.7439 3.62411 35.1222 1.9659 32.3969 1.13547L32.3949 1.13449C29.6791 0.296497 26.9576 0.288927 24.2172 1.11203C22.8927 1.51515 20.9159 2.76779 19.2211 3.96848C18.3849 4.56088 17.6355 5.1273 17.0951 5.54562C16.825 5.75466 16.6072 5.92626 16.4574 6.04562C16.3825 6.10528 16.3246 6.15183 16.2855 6.18332C16.266 6.19906 16.2514 6.21147 16.2416 6.21945C16.2378 6.22252 16.2351 6.2254 16.2328 6.22726C16.2314 6.22853 16.2295 6.22974 16.2279 6.23117L15.9467 6.48898C15.7547 6.66543 15.4807 6.91853 15.1517 7.22433C14.4932 7.83648 13.6154 8.65922 12.7396 9.50461C11.8625 10.3512 10.9919 11.2158 10.3441 11.9109C10.0194 12.2593 9.75877 12.5573 9.5824 12.7849C9.51542 12.8713 9.46615 12.9422 9.43103 12.9968C9.46243 13.048 9.50577 13.1131 9.56384 13.1921C9.71895 13.403 9.94727 13.6778 10.2338 13.9968C10.8049 14.6328 11.5785 15.4175 12.3812 16.1765C13.1846 16.936 14.0081 17.6605 14.6781 18.1804C15.0144 18.4413 15.3006 18.6414 15.5199 18.7683C15.6302 18.8321 15.7103 18.8699 15.7621 18.8884L15.7631 18.8894C15.9646 18.8366 16.3707 18.6981 16.9076 18.4997C17.4842 18.2867 18.1753 18.0198 18.8412 17.7575C19.5066 17.4954 20.145 17.2384 20.6176 17.0476C20.6448 17.0366 20.6715 17.0259 20.6976 17.0154L16.1478 12.4655L20.0238 8.58957C21.5554 7.06509 22.5909 6.1401 24.4672 5.58273H24.4691C26.5203 4.984 28.1759 4.71251 30.309 5.46164L30.3099 5.46262C32.383 6.19613 34.6342 7.59457 36.6254 9.58566C38.547 11.5073 40.0251 13.1019 40.766 15.2116C41.1272 16.2241 41.3427 17.0799 41.3851 17.9499C41.4277 18.8235 41.2942 19.6806 40.9994 20.696C40.3968 22.7715 38.8365 24.9732 36.931 26.8786L34.1 29.7107L33.726 30.0847L33.3734 29.6892L33.3724 29.6882C33.3719 29.6876 33.3714 29.6864 33.3705 29.6853C33.3682 29.6827 33.3642 29.6795 33.3597 29.6745C33.3507 29.6644 33.3375 29.6484 33.3197 29.6286C33.2842 29.589 33.2312 29.5308 33.1644 29.4568C33.0307 29.3084 32.8393 29.096 32.6068 28.8415C32.1412 28.3319 31.5133 27.6533 30.8636 26.9743C30.2125 26.2938 29.5443 25.6185 28.9974 25.115C28.7231 24.8624 28.4875 24.6612 28.3051 24.5251C28.2454 24.4806 28.195 24.4471 28.1547 24.4216C28.1001 24.4567 28.029 24.5051 27.9427 24.572C27.7151 24.7484 27.4174 25.0098 27.0687 25.3347C26.3737 25.9824 25.51 26.8532 24.6635 27.7302C23.8181 28.606 22.9944 29.4828 22.3822 30.1413C22.0762 30.4705 21.8233 30.7453 21.6469 30.9372L21.3783 31.2302L21.3773 31.2312C21.3693 31.241 21.3569 31.2566 21.3412 31.2761C21.3097 31.3151 21.263 31.3733 21.2035 31.448C21.0842 31.5977 20.9123 31.8149 20.7035 32.0847C20.2852 32.6251 19.7187 33.3745 19.1263 34.2107C18.0002 35.8002 16.8277 37.638 16.3539 38.9529L16.2699 39.2068C15.4467 41.9474 15.4543 44.6695 16.2924 47.3855L16.2933 47.3874C17.1238 50.1127 18.7821 52.7336 21.2963 55.2478C23.803 57.7545 26.4081 59.4045 29.1088 60.2273L29.1107 60.2282L29.6176 60.3757C32.148 61.0655 34.6685 61.0329 37.1898 60.278L37.1918 60.2771C38.4988 59.8905 40.4287 58.6837 42.0804 57.5261C42.895 56.9552 43.6245 56.4098 44.1498 56.0066C44.4121 55.8051 44.6235 55.6391 44.7689 55.5241C44.8414 55.4668 44.8971 55.4216 44.9349 55.3913C44.9538 55.3762 44.9684 55.3648 44.9779 55.3571C44.9806 55.355 44.9828 55.3528 44.9847 55.3513C44.9982 55.3386 45.0181 55.3194 45.0443 55.2946C45.0969 55.245 45.1746 55.172 45.2728 55.0788C45.4694 54.8925 45.7504 54.6253 46.0873 54.3025C46.7614 53.6564 47.6592 52.7875 48.5551 51.8962C49.452 51.0039 50.342 50.0939 51.0033 49.363C51.335 48.9964 51.6019 48.683 51.7816 48.4441C51.8515 48.3511 51.9029 48.2756 51.9388 48.2175Z" fill="#FE5F55" stroke="#131313"/>
</svg>
