<svg width="550" height="825" viewBox="0 0 550 825" fill="none" xmlns="http://www.w3.org/2000/svg">
<g filter="url(#filter0_n_2693_49)">
<mask id="mask0_2693_49" style="mask-type:alpha" maskUnits="userSpaceOnUse" x="0" y="0" width="550" height="825">
<rect width="550" height="825" fill="#F2F3F0"/>
</mask>
<g mask="url(#mask0_2693_49)">
<rect width="550" height="825" fill="#DDD5D0"/>
<g filter="url(#filter1_f_2693_49)">
<path d="M421.939 337.227C400.861 355.865 378.674 441.812 362.463 432.99C349.722 437.695 149.889 502.347 163.388 534.337C183.734 582.551 574.092 601.446 574.092 601.446L574.091 601.447C628.935 588.382 696.141 441.746 696.141 441.746L605.41 369.439L541.49 147.335L506.559 372.224L421.939 337.227Z" fill="#DB5461"/>
</g>
<g filter="url(#filter2_f_2693_49)">
<path d="M828.508 889.507C828.508 1132.51 631.513 1329.51 388.508 1329.51C145.502 1329.51 -51.4922 1132.51 -51.4922 889.507C-51.4922 646.501 145.502 449.507 388.508 449.507C631.513 449.507 828.508 646.501 828.508 889.507Z" fill="url(#paint0_linear_2693_49)"/>
</g>
<mask id="mask1_2693_49" style="mask-type:alpha" maskUnits="userSpaceOnUse" x="-50" y="451" width="881" height="881">
<path d="M830.508 891.506C830.508 1134.51 633.513 1331.51 390.508 1331.51C147.502 1331.51 -49.4922 1134.51 -49.4922 891.506C-49.4922 648.501 147.502 451.507 390.508 451.507C633.513 451.507 830.508 648.501 830.508 891.506Z" fill="#191102"/>
</mask>
<g mask="url(#mask1_2693_49)">
<g filter="url(#filter3_d_2693_49)">
<path d="M830.508 891.506C830.508 1134.51 633.513 1331.51 390.508 1331.51C147.502 1331.51 -49.4922 1134.51 -49.4922 891.506C-49.4922 648.501 147.502 451.507 390.508 451.507C633.513 451.507 830.508 648.501 830.508 891.506Z" fill="#131313"/>
</g>
<g filter="url(#filter4_f_2693_49)">
<path d="M95.0999 812.2C95.0999 843.791 60.3796 869.4 17.55 869.4C-25.2797 869.4 -60 843.791 -60 812.2C-60 780.609 -25.2797 755 17.55 755C60.3796 755 95.0999 780.609 95.0999 812.2Z" fill="#DB5461"/>
</g>
<g filter="url(#filter5_f_2693_49)">
<path d="M86.4998 925.75C86.4998 1067 -20.616 1181.5 -152.75 1181.5C-284.884 1181.5 -392 1067 -392 925.75C-392 784.503 -284.884 670 -152.75 670C-20.616 670 86.4998 784.503 86.4998 925.75Z" fill="#DB5461"/>
</g>
<mask id="mask2_2693_49" style="mask-type:alpha" maskUnits="userSpaceOnUse" x="-69" y="443" width="973" height="951">
<path d="M902.603 886.638C909.237 988.466 882.152 1089.77 825.36 1175.56C768.567 1261.34 685.085 1327.04 587.277 1362.93C489.469 1398.82 382.533 1402.98 282.306 1374.81C182.078 1346.65 93.8864 1287.64 30.7902 1206.53C-32.306 1125.41 -66.9523 1026.51 -68.0185 924.47C-69.0847 822.424 -36.514 722.66 24.8705 639.949C86.2551 557.237 173.19 495.977 272.802 465.238C372.415 434.499 479.408 435.916 577.94 469.28L565.501 517C475.344 486.472 376.27 475.616 285.125 503.742C193.979 531.868 114.434 587.921 58.267 663.602C2.10016 739.283 -27.702 830.567 -26.7264 923.939C-25.7509 1017.31 5.9505 1107.8 63.6835 1182.02C121.417 1256.24 202.112 1310.23 293.82 1336C385.529 1361.78 483.374 1357.97 572.869 1325.13C662.364 1292.29 738.749 1232.17 790.715 1153.68C842.68 1075.19 867.463 982.495 861.393 889.322L902.603 886.638Z" fill="url(#paint1_linear_2693_49)"/>
</mask>
<g mask="url(#mask2_2693_49)">
<g filter="url(#filter6_f_2693_49)">
<path d="M-11.6085 826.48L19.6054 826.781L41 725L343.5 268L-11.9313 642L-11.9313 792.964L-11.6085 826.48Z" fill="#FFEEDB"/>
</g>
<g filter="url(#filter7_f_2693_49)">
<path d="M45.0288 782.48L76.2427 782.781L97.6372 681L142.001 517.5L-55.4995 673.482L50.0004 681L44.7059 748.964L45.0288 782.48Z" fill="#DB5461" fill-opacity="0.7"/>
</g>
<g filter="url(#filter8_f_2693_49)">
<path d="M105.5 634L105.5 541L55.0001 625.5L8.50047 751.5L105.5 634Z" fill="#DB5461"/>
</g>
<g filter="url(#filter9_f_2693_49)">
<path d="M642.001 552L583.501 365L43.5012 464L85.0002 613L642.001 552Z" fill="#DB5461"/>
</g>
<g filter="url(#filter10_f_2693_49)">
<path d="M534.788 474.966C612.057 487.533 685.014 518.201 747.436 564.352C809.858 610.504 859.892 670.77 893.267 740.007L853.906 758.237C823.52 695.199 777.967 640.33 721.134 598.311C664.302 556.292 597.877 528.37 527.528 516.929L534.788 474.966Z" fill="#131313"/>
</g>
<g filter="url(#filter11_f_2693_49)">
<path d="M211.23 549.858C278.281 509.998 354.151 486.562 432.365 481.551C510.58 476.54 588.817 490.102 660.403 521.079L642.701 559.988C577.525 531.784 506.293 519.437 435.083 523.999C363.872 528.561 294.796 549.898 233.75 586.189L211.23 549.858Z" fill="#DB5461"/>
</g>
<g filter="url(#filter12_f_2693_49)">
<path d="M67.2305 636.858C134.281 596.998 210.151 573.562 288.365 568.551C366.58 563.54 444.817 577.102 516.403 608.079L498.701 646.988C433.525 618.784 362.293 606.437 291.083 610.999C219.872 615.561 150.796 636.898 89.7498 673.189L67.2305 636.858Z" fill="#131313"/>
</g>
<g filter="url(#filter13_f_2693_49)">
<path d="M163.152 562.82C251.312 492.316 362.219 454.595 476.396 456.281L475.986 498.826C372.032 497.291 271.057 531.634 190.791 595.825L163.152 562.82Z" fill="#131313" fill-opacity="0.8"/>
</g>
<g filter="url(#filter14_f_2693_49)">
<path d="M381.134 464.433C505.311 447.82 596.456 477.414 636.531 547.361L586.519 583.353C550.032 519.67 467.049 492.725 353.991 507.851L381.134 464.433Z" fill="#131313"/>
</g>
<g filter="url(#filter15_f_2693_49)">
<path d="M401.555 475.96C496.845 466.566 568.032 492.602 601.028 548.914L563.522 575.787C533.481 524.517 468.669 500.813 381.911 509.366L401.555 475.96Z" fill="#131313"/>
</g>
<g filter="url(#filter16_f_2693_49)">
<path d="M272.191 437.939C347.226 417.173 426.431 414.503 503.074 430.156C579.718 445.81 651.532 479.325 712.414 527.851L685.156 560.777C629.726 516.596 564.342 486.083 494.562 471.831C424.782 457.579 352.67 460.009 284.354 478.916L272.191 437.939Z" fill="#DB5461"/>
</g>
<g filter="url(#filter17_f_2693_49)">
<path d="M162.585 520.78L175.501 513L268.501 472.5L385.501 459.5L500.501 468L481.501 386L181.5 393L162.262 487.265L162.585 520.78Z" fill="#DB5461"/>
</g>
</g>
<g filter="url(#filter18_f_2693_49)">
<path d="M748.005 622.608C813.051 718.065 835.007 837.278 809.134 954.513C783.26 1071.75 711.633 1177.6 609.713 1249.22C507.794 1320.84 383.758 1352.48 264.381 1337.32C145.004 1322.15 39.8616 1261.39 -28.3494 1168.16C-96.5603 1074.93 -122.368 956.697 -100.202 838.992C-78.036 721.287 -9.6738 613.548 90.1272 539.032C189.928 464.517 313.163 429.203 433.228 440.713C553.293 452.223 660.559 509.634 731.869 600.553L719.061 610.407C650.18 522.585 546.569 467.13 430.593 456.012C314.618 444.894 195.582 479.005 99.1804 550.981C2.77908 622.958 -63.2544 727.027 -84.6654 840.723C-106.076 954.419 -81.1476 1068.62 -15.2603 1158.68C50.627 1248.74 152.188 1307.42 267.498 1322.07C382.809 1336.72 502.619 1306.16 601.067 1236.98C699.514 1167.8 768.702 1065.55 793.694 952.308C818.686 839.068 797.478 723.916 734.648 631.71L748.005 622.608Z" fill="#DB5461"/>
</g>
</g>
<g filter="url(#filter19_f_2693_49)">
<path d="M404.813 425.412L495.562 306.303C495.562 306.303 585.642 548.526 597.88 577.259C640.179 676.58 655.318 765.252 631.694 775.313C608.07 785.374 554.629 713.014 512.33 613.693C499.386 583.3 416.025 457.36 404.813 425.412Z" fill="url(#paint2_linear_2693_49)" fill-opacity="0.9"/>
</g>
<g filter="url(#filter20_f_2693_49)">
<path d="M-51.9517 572.673L50.374 577.66C50.374 577.66 -3.10572 684.603 -8.57629 697.951C-27.486 744.088 -57.1052 775.633 -74.7328 768.408C-92.3604 761.184 -91.321 717.925 -72.4114 671.788C-66.6248 657.669 -59.382 586.493 -51.9517 572.673Z" fill="url(#paint3_linear_2693_49)" fill-opacity="0.9"/>
</g>
<g filter="url(#filter21_f_2693_49)">
<path d="M118.305 404.1C118.305 404.1 208.412 149.952 168.751 -71.6504L-46.6957 235.799L-51.7985 385.4L24.6516 729.7L24.6516 464.6C11.1208 366.915 36.0039 409.047 76.9015 483.85C82.2854 443.325 37.5902 374.55 45.5522 371.649C75.6228 360.695 118.305 404.1 118.305 404.1Z" fill="#DB5461"/>
</g>
<path d="M194.601 -43.6003C194.601 199.405 -2.39329 396.399 -245.399 396.399C-488.404 396.399 -685.398 199.405 -685.398 -43.6003C-685.398 -286.605 -488.404 -483.6 -245.399 -483.6C-2.39329 -483.6 194.601 -286.605 194.601 -43.6003Z" fill="#DB5461"/>
<g filter="url(#filter22_f_2693_49)">
<path d="M190.193 -84.7919C205.615 29.6721 175.086 145.654 105.194 238.124C35.3026 330.593 -68.3468 392.133 -183.384 409.464C-298.422 426.794 -415.622 398.524 -509.691 330.755C-603.759 262.987 -667.152 161.154 -686.189 47.2341C-705.225 -66.6854 -678.378 -183.556 -611.441 -278.154C-544.505 -372.752 -442.847 -437.492 -328.407 -458.401C-213.968 -479.31 -95.9241 -454.711 0.247288 -389.914C96.4186 -325.117 163.005 -225.318 185.637 -112.055L183.463 -111.623C160.945 -224.32 94.6914 -323.62 -0.999086 -388.093C-96.6896 -452.566 -214.143 -477.041 -328.01 -456.237C-441.877 -435.432 -543.027 -371.016 -609.629 -276.891C-676.231 -182.766 -702.944 -66.48 -684.003 46.8699C-665.062 160.22 -601.985 261.544 -508.387 328.974C-414.789 396.403 -298.175 424.532 -183.713 407.288C-69.2502 390.045 33.881 328.812 103.423 236.805C172.965 144.798 203.342 29.3957 187.997 -84.496L190.193 -84.7919Z" fill="#DB5461" fill-opacity="0.9"/>
</g>
<g filter="url(#filter23_f_2693_49)">
<path d="M-591.931 238.062C-740.763 45.9667 -705.691 -230.409 -513.596 -379.241C-321.501 -528.074 -45.1248 -493.002 103.707 -300.907C252.539 -108.812 217.467 167.565 25.3723 316.397C-166.723 465.229 -443.099 430.157 -591.931 238.062Z" fill="url(#paint4_linear_2693_49)"/>
</g>
<mask id="mask3_2693_49" style="mask-type:alpha" maskUnits="userSpaceOnUse" x="-687" y="-472" width="881" height="881">
<path d="M-594.738 237.706C-743.57 45.611 -708.498 -230.765 -516.403 -379.597C-324.308 -528.429 -47.9314 -493.358 100.901 -301.262C249.733 -109.167 214.661 167.209 22.5656 316.041C-169.53 464.873 -445.906 429.801 -594.738 237.706Z" fill="#191102"/>
</mask>
<g mask="url(#mask3_2693_49)">
<g filter="url(#filter24_d_2693_49)">
<path d="M-594.738 237.706C-743.57 45.6108 -708.498 -230.765 -516.403 -379.597C-324.308 -528.429 -47.9314 -493.358 100.901 -301.263C249.733 -109.167 214.661 167.209 22.5656 316.041C-169.53 464.873 -445.906 429.801 -594.738 237.706Z" fill="#131313"/>
</g>
<mask id="mask4_2693_49" style="mask-type:alpha" maskUnits="userSpaceOnUse" x="-285" y="-461" width="501" height="881">
<path d="M-284.004 419C-218.343 419 -153.325 407.62 -92.6622 385.507C-31.9994 363.395 23.1202 330.985 69.5495 290.127C115.979 249.27 152.809 200.764 177.936 147.381C203.063 93.9979 215.996 36.7821 215.996 -20.9995C215.996 -78.7812 203.063 -135.997 177.936 -189.38C152.808 -242.764 115.979 -291.269 69.5495 -332.127C23.1202 -372.984 -31.9994 -405.394 -92.6622 -427.507C-153.325 -449.619 -218.343 -461 -284.004 -461L-284.004 -407.909C-226.266 -407.909 -169.093 -397.901 -115.75 -378.457C-62.4066 -359.013 -13.9378 -330.513 26.8892 -294.586C67.7163 -258.658 100.102 -216.005 122.198 -169.063C144.293 -122.121 155.665 -71.8091 155.665 -20.9995C155.665 29.8101 144.293 80.1222 122.198 127.064C100.102 174.006 67.7163 216.659 26.8893 252.586C-13.9378 288.514 -62.4066 317.014 -115.75 336.458C-169.093 355.902 -226.266 365.909 -284.004 365.909V419Z" fill="#D9D9D9"/>
</mask>
<g mask="url(#mask4_2693_49)">
<g filter="url(#filter25_f_2693_49)">
<path d="M142.496 154.5C99.9183 221.553 71.8676 282.973 30.9961 318L241.995 382L356.763 -129.393L202.162 -134.048C189.066 -23.8245 190.496 35.8571 142.496 154.5Z" fill="#DB5461"/>
</g>
<g filter="url(#filter26_f_2693_49)">
<path d="M101.031 246.217C38.299 294.937 -8.85768 343.265 -59.1614 362.419L117.797 493.958L398.631 51.4342L254.698 -5.19154C205.123 94.1215 186.302 150.776 101.031 246.217Z" fill="#DB5461"/>
</g>
<g filter="url(#filter27_f_2693_49)">
<path d="M285.516 21.6051L184.073 -34.8948L172.072 104.605L168.072 93.1052L137.572 164.105L98.5723 228.605L38.5723 288.605L-19.4277 325.605L13.0726 398.605L285.516 21.6051Z" fill="#DB5461" fill-opacity="0.7"/>
</g>
</g>
<g filter="url(#filter28_f_2693_49)">
<path d="M35.1733 -150.013C15.8251 -174.985 27.5867 -216.494 61.4435 -242.726C95.3002 -268.958 138.431 -269.978 157.78 -245.006C177.128 -220.034 165.366 -178.525 131.509 -152.293C97.6526 -126.061 54.5215 -125.04 35.1733 -150.013Z" fill="#DB5461"/>
</g>
<path d="M-27.5726 -245.042C-114.081 -356.697 -99.5354 -512.816 4.91631 -593.744C109.368 -674.671 264.172 -649.761 350.681 -538.106C437.189 -426.45 422.643 -270.331 318.192 -189.404C213.74 -108.476 58.936 -133.386 -27.5726 -245.042Z" fill="#DB5461"/>
<g filter="url(#filter30_f_2693_49)">
<path d="M-370.791 397.805C-479.107 362.693 -567.973 282.39 -618.206 174.231C-668.439 66.073 -676.009 -61.265 -639.282 -180.294C-602.556 -299.324 -524.478 -400.497 -421.904 -461.973C-319.329 -523.45 -200.487 -540.298 -91.0298 -508.882C18.4271 -477.466 109.718 -400.305 163.137 -294.056C216.555 -187.807 227.816 -60.9918 194.488 59.0132C161.161 179.018 85.9178 282.587 -14.9974 347.363C-115.913 412.139 -234.406 432.926 -344.898 405.237L-340.795 389.608C-234.067 416.354 -119.611 396.275 -22.1331 333.706C75.3444 271.136 148.024 171.095 180.216 55.178C212.409 -60.739 201.531 -183.234 149.933 -285.864C98.334 -388.493 10.1528 -463.026 -95.5754 -493.372C-201.304 -523.718 -316.098 -507.443 -415.178 -448.061C-514.258 -388.679 -589.676 -290.952 -625.152 -175.978C-660.627 -61.0029 -653.315 61.9973 -604.793 166.471C-556.272 270.945 -470.433 348.513 -365.806 382.429L-370.791 397.805Z" fill="#DB5461"/>
</g>
</g>
</g>
</g>
<defs>
<filter id="filter0_n_2693_49" x="0" y="0" width="550" height="825" filterUnits="userSpaceOnUse" color-interpolation-filters="sRGB">
<feFlood flood-opacity="0" result="BackgroundImageFix"/>
<feBlend mode="normal" in="SourceGraphic" in2="BackgroundImageFix" result="shape"/>
<feTurbulence type="fractalNoise" baseFrequency="0.66666668653488159 0.66666668653488159" stitchTiles="stitch" numOctaves="3" result="noise" seed="902" />
<feColorMatrix in="noise" type="luminanceToAlpha" result="alphaNoise" />
<feComponentTransfer in="alphaNoise" result="coloredNoise1">
<feFuncA type="discrete" tableValues="0 0 0 0 0 0 0 0 0 0 0 0 1 1 1 1 1 1 1 1 1 1 1 1 1 1 1 1 1 1 1 1 1 1 1 1 1 1 0 0 0 0 0 0 0 0 0 0 0 0 0 0 0 0 0 0 0 0 0 0 0 0 0 0 0 0 0 0 0 0 0 0 0 0 0 0 0 0 0 0 0 0 0 0 0 0 0 0 0 0 0 0 0 0 0 0 0 0 0 0 "/>
</feComponentTransfer>
<feComposite operator="in" in2="shape" in="coloredNoise1" result="noise1Clipped" />
<feFlood flood-color="rgba(0, 0, 0, 0.25)" result="color1Flood" />
<feComposite operator="in" in2="noise1Clipped" in="color1Flood" result="color1" />
<feMerge result="effect1_noise_2693_49">
<feMergeNode in="shape" />
<feMergeNode in="color1" />
</feMerge>
</filter>
<filter id="filter1_f_2693_49" x="62.7344" y="47.3345" width="733.406" height="654.112" filterUnits="userSpaceOnUse" color-interpolation-filters="sRGB">
<feFlood flood-opacity="0" result="BackgroundImageFix"/>
<feBlend mode="normal" in="SourceGraphic" in2="BackgroundImageFix" result="shape"/>
<feGaussianBlur stdDeviation="50" result="effect1_foregroundBlur_2693_49"/>
</filter>
<filter id="filter2_f_2693_49" x="-61.4922" y="439.507" width="900" height="900" filterUnits="userSpaceOnUse" color-interpolation-filters="sRGB">
<feFlood flood-opacity="0" result="BackgroundImageFix"/>
<feBlend mode="normal" in="SourceGraphic" in2="BackgroundImageFix" result="shape"/>
<feGaussianBlur stdDeviation="5" result="effect1_foregroundBlur_2693_49"/>
</filter>
<filter id="filter3_d_2693_49" x="-123.492" y="347.507" width="1048" height="1048" filterUnits="userSpaceOnUse" color-interpolation-filters="sRGB">
<feFlood flood-opacity="0" result="BackgroundImageFix"/>
<feColorMatrix in="SourceAlpha" type="matrix" values="0 0 0 0 0 0 0 0 0 0 0 0 0 0 0 0 0 0 127 0" result="hardAlpha"/>
<feOffset dx="10" dy="-20"/>
<feGaussianBlur stdDeviation="42"/>
<feComposite in2="hardAlpha" operator="out"/>
<feColorMatrix type="matrix" values="0 0 0 0 0 0 0 0 0 0 0 0 0 0 0 0 0 0 0.25 0"/>
<feBlend mode="normal" in2="BackgroundImageFix" result="effect1_dropShadow_2693_49"/>
<feBlend mode="normal" in="SourceGraphic" in2="effect1_dropShadow_2693_49" result="shape"/>
</filter>
<filter id="filter4_f_2693_49" x="-260" y="555" width="555.1" height="514.4" filterUnits="userSpaceOnUse" color-interpolation-filters="sRGB">
<feFlood flood-opacity="0" result="BackgroundImageFix"/>
<feBlend mode="normal" in="SourceGraphic" in2="BackgroundImageFix" result="shape"/>
<feGaussianBlur stdDeviation="100" result="effect1_foregroundBlur_2693_49"/>
</filter>
<filter id="filter5_f_2693_49" x="-492" y="570" width="678.5" height="711.5" filterUnits="userSpaceOnUse" color-interpolation-filters="sRGB">
<feFlood flood-opacity="0" result="BackgroundImageFix"/>
<feBlend mode="normal" in="SourceGraphic" in2="BackgroundImageFix" result="shape"/>
<feGaussianBlur stdDeviation="50" result="effect1_foregroundBlur_2693_49"/>
</filter>
<filter id="filter6_f_2693_49" x="-41.9316" y="238" width="415.432" height="618.781" filterUnits="userSpaceOnUse" color-interpolation-filters="sRGB">
<feFlood flood-opacity="0" result="BackgroundImageFix"/>
<feBlend mode="normal" in="SourceGraphic" in2="BackgroundImageFix" result="shape"/>
<feGaussianBlur stdDeviation="15" result="effect1_foregroundBlur_2693_49"/>
</filter>
<filter id="filter7_f_2693_49" x="-85.5" y="487.5" width="257.5" height="325.281" filterUnits="userSpaceOnUse" color-interpolation-filters="sRGB">
<feFlood flood-opacity="0" result="BackgroundImageFix"/>
<feBlend mode="normal" in="SourceGraphic" in2="BackgroundImageFix" result="shape"/>
<feGaussianBlur stdDeviation="15" result="effect1_foregroundBlur_2693_49"/>
</filter>
<filter id="filter8_f_2693_49" x="-21.5" y="511" width="157" height="270.5" filterUnits="userSpaceOnUse" color-interpolation-filters="sRGB">
<feFlood flood-opacity="0" result="BackgroundImageFix"/>
<feBlend mode="normal" in="SourceGraphic" in2="BackgroundImageFix" result="shape"/>
<feGaussianBlur stdDeviation="15" result="effect1_foregroundBlur_2693_49"/>
</filter>
<filter id="filter9_f_2693_49" x="13.502" y="335" width="658.498" height="308" filterUnits="userSpaceOnUse" color-interpolation-filters="sRGB">
<feFlood flood-opacity="0" result="BackgroundImageFix"/>
<feBlend mode="normal" in="SourceGraphic" in2="BackgroundImageFix" result="shape"/>
<feGaussianBlur stdDeviation="15" result="effect1_foregroundBlur_2693_49"/>
</filter>
<filter id="filter10_f_2693_49" x="467.527" y="414.966" width="485.74" height="403.271" filterUnits="userSpaceOnUse" color-interpolation-filters="sRGB">
<feFlood flood-opacity="0" result="BackgroundImageFix"/>
<feBlend mode="normal" in="SourceGraphic" in2="BackgroundImageFix" result="shape"/>
<feGaussianBlur stdDeviation="30" result="effect1_foregroundBlur_2693_49"/>
</filter>
<filter id="filter11_f_2693_49" x="151.23" y="420.534" width="569.172" height="225.654" filterUnits="userSpaceOnUse" color-interpolation-filters="sRGB">
<feFlood flood-opacity="0" result="BackgroundImageFix"/>
<feBlend mode="normal" in="SourceGraphic" in2="BackgroundImageFix" result="shape"/>
<feGaussianBlur stdDeviation="30" result="effect1_foregroundBlur_2693_49"/>
</filter>
<filter id="filter12_f_2693_49" x="7.23047" y="507.534" width="569.172" height="225.654" filterUnits="userSpaceOnUse" color-interpolation-filters="sRGB">
<feFlood flood-opacity="0" result="BackgroundImageFix"/>
<feBlend mode="normal" in="SourceGraphic" in2="BackgroundImageFix" result="shape"/>
<feGaussianBlur stdDeviation="30" result="effect1_foregroundBlur_2693_49"/>
</filter>
<filter id="filter13_f_2693_49" x="133.152" y="426.227" width="373.244" height="199.598" filterUnits="userSpaceOnUse" color-interpolation-filters="sRGB">
<feFlood flood-opacity="0" result="BackgroundImageFix"/>
<feBlend mode="normal" in="SourceGraphic" in2="BackgroundImageFix" result="shape"/>
<feGaussianBlur stdDeviation="15" result="effect1_foregroundBlur_2693_49"/>
</filter>
<filter id="filter14_f_2693_49" x="323.992" y="429.919" width="342.539" height="183.434" filterUnits="userSpaceOnUse" color-interpolation-filters="sRGB">
<feFlood flood-opacity="0" result="BackgroundImageFix"/>
<feBlend mode="normal" in="SourceGraphic" in2="BackgroundImageFix" result="shape"/>
<feGaussianBlur stdDeviation="15" result="effect1_foregroundBlur_2693_49"/>
</filter>
<filter id="filter15_f_2693_49" x="351.912" y="444.079" width="279.115" height="161.708" filterUnits="userSpaceOnUse" color-interpolation-filters="sRGB">
<feFlood flood-opacity="0" result="BackgroundImageFix"/>
<feBlend mode="normal" in="SourceGraphic" in2="BackgroundImageFix" result="shape"/>
<feGaussianBlur stdDeviation="15" result="effect1_foregroundBlur_2693_49"/>
</filter>
<filter id="filter16_f_2693_49" x="212.191" y="360.109" width="560.223" height="260.668" filterUnits="userSpaceOnUse" color-interpolation-filters="sRGB">
<feFlood flood-opacity="0" result="BackgroundImageFix"/>
<feBlend mode="normal" in="SourceGraphic" in2="BackgroundImageFix" result="shape"/>
<feGaussianBlur stdDeviation="30" result="effect1_foregroundBlur_2693_49"/>
</filter>
<filter id="filter17_f_2693_49" x="132.262" y="356" width="398.24" height="194.781" filterUnits="userSpaceOnUse" color-interpolation-filters="sRGB">
<feFlood flood-opacity="0" result="BackgroundImageFix"/>
<feBlend mode="normal" in="SourceGraphic" in2="BackgroundImageFix" result="shape"/>
<feGaussianBlur stdDeviation="15" result="effect1_foregroundBlur_2693_49"/>
</filter>
<filter id="filter18_f_2693_49" x="-117.953" y="428.577" width="947.68" height="922.454" filterUnits="userSpaceOnUse" color-interpolation-filters="sRGB">
<feFlood flood-opacity="0" result="BackgroundImageFix"/>
<feBlend mode="normal" in="SourceGraphic" in2="BackgroundImageFix" result="shape"/>
<feGaussianBlur stdDeviation="5" result="effect1_foregroundBlur_2693_49"/>
</filter>
<filter id="filter19_f_2693_49" x="304.812" y="206.303" width="438.033" height="669.944" filterUnits="userSpaceOnUse" color-interpolation-filters="sRGB">
<feFlood flood-opacity="0" result="BackgroundImageFix"/>
<feBlend mode="normal" in="SourceGraphic" in2="BackgroundImageFix" result="shape"/>
<feGaussianBlur stdDeviation="50" result="effect1_foregroundBlur_2693_49"/>
</filter>
<filter id="filter20_f_2693_49" x="-187.303" y="472.674" width="337.678" height="396.765" filterUnits="userSpaceOnUse" color-interpolation-filters="sRGB">
<feFlood flood-opacity="0" result="BackgroundImageFix"/>
<feBlend mode="normal" in="SourceGraphic" in2="BackgroundImageFix" result="shape"/>
<feGaussianBlur stdDeviation="50" result="effect1_foregroundBlur_2693_49"/>
</filter>
<filter id="filter21_f_2693_49" x="-151.799" y="-171.65" width="430.637" height="1001.35" filterUnits="userSpaceOnUse" color-interpolation-filters="sRGB">
<feFlood flood-opacity="0" result="BackgroundImageFix"/>
<feBlend mode="normal" in="SourceGraphic" in2="BackgroundImageFix" result="shape"/>
<feGaussianBlur stdDeviation="50" result="effect1_foregroundBlur_2693_49"/>
</filter>
<filter id="filter22_f_2693_49" x="-697.164" y="-470.672" width="896.27" height="890.118" filterUnits="userSpaceOnUse" color-interpolation-filters="sRGB">
<feFlood flood-opacity="0" result="BackgroundImageFix"/>
<feBlend mode="normal" in="SourceGraphic" in2="BackgroundImageFix" result="shape"/>
<feGaussianBlur stdDeviation="2.5" result="effect1_foregroundBlur_2693_49"/>
</filter>
<filter id="filter23_f_2693_49" x="-694.133" y="-481.443" width="900.041" height="900.041" filterUnits="userSpaceOnUse" color-interpolation-filters="sRGB">
<feFlood flood-opacity="0" result="BackgroundImageFix"/>
<feBlend mode="normal" in="SourceGraphic" in2="BackgroundImageFix" result="shape"/>
<feGaussianBlur stdDeviation="5" result="effect1_foregroundBlur_2693_49"/>
</filter>
<filter id="filter24_d_2693_49" x="-760.939" y="-575.799" width="1048.04" height="1048.04" filterUnits="userSpaceOnUse" color-interpolation-filters="sRGB">
<feFlood flood-opacity="0" result="BackgroundImageFix"/>
<feColorMatrix in="SourceAlpha" type="matrix" values="0 0 0 0 0 0 0 0 0 0 0 0 0 0 0 0 0 0 127 0" result="hardAlpha"/>
<feOffset dx="10" dy="-20"/>
<feGaussianBlur stdDeviation="42"/>
<feComposite in2="hardAlpha" operator="out"/>
<feColorMatrix type="matrix" values="0 0 0 0 0 0 0 0 0 0 0 0 0 0 0 0 0 0 0.25 0"/>
<feBlend mode="normal" in2="BackgroundImageFix" result="effect1_dropShadow_2693_49"/>
<feBlend mode="normal" in="SourceGraphic" in2="effect1_dropShadow_2693_49" result="shape"/>
</filter>
<filter id="filter25_f_2693_49" x="0.996094" y="-164.048" width="385.768" height="576.048" filterUnits="userSpaceOnUse" color-interpolation-filters="sRGB">
<feFlood flood-opacity="0" result="BackgroundImageFix"/>
<feBlend mode="normal" in="SourceGraphic" in2="BackgroundImageFix" result="shape"/>
<feGaussianBlur stdDeviation="15" result="effect1_foregroundBlur_2693_49"/>
</filter>
<filter id="filter26_f_2693_49" x="-89.1621" y="-35.1915" width="517.793" height="559.149" filterUnits="userSpaceOnUse" color-interpolation-filters="sRGB">
<feFlood flood-opacity="0" result="BackgroundImageFix"/>
<feBlend mode="normal" in="SourceGraphic" in2="BackgroundImageFix" result="shape"/>
<feGaussianBlur stdDeviation="15" result="effect1_foregroundBlur_2693_49"/>
</filter>
<filter id="filter27_f_2693_49" x="-49.4277" y="-64.8948" width="364.943" height="493.5" filterUnits="userSpaceOnUse" color-interpolation-filters="sRGB">
<feFlood flood-opacity="0" result="BackgroundImageFix"/>
<feBlend mode="normal" in="SourceGraphic" in2="BackgroundImageFix" result="shape"/>
<feGaussianBlur stdDeviation="15" result="effect1_foregroundBlur_2693_49"/>
</filter>
<filter id="filter28_f_2693_49" x="-174.143" y="-463.087" width="541.238" height="531.156" filterUnits="userSpaceOnUse" color-interpolation-filters="sRGB">
<feFlood flood-opacity="0" result="BackgroundImageFix"/>
<feBlend mode="normal" in="SourceGraphic" in2="BackgroundImageFix" result="shape"/>
<feGaussianBlur stdDeviation="100" result="effect1_foregroundBlur_2693_49"/>
</filter>
<filter id="filter30_f_2693_49" x="-672.238" y="-534.347" width="895.539" height="961.552" filterUnits="userSpaceOnUse" color-interpolation-filters="sRGB">
<feFlood flood-opacity="0" result="BackgroundImageFix"/>
<feBlend mode="normal" in="SourceGraphic" in2="BackgroundImageFix" result="shape"/>
<feGaussianBlur stdDeviation="5" result="effect1_foregroundBlur_2693_49"/>
</filter>
<linearGradient id="paint0_linear_2693_49" x1="532.501" y1="458" x2="-40.499" y2="712.5" gradientUnits="userSpaceOnUse">
<stop stop-color="#DB5461"/>
<stop offset="1" stop-color="#DB5461" stop-opacity="0"/>
</linearGradient>
<linearGradient id="paint1_linear_2693_49" x1="-0.385299" y1="860.396" x2="632.244" y2="526.438" gradientUnits="userSpaceOnUse">
<stop stop-color="#FFEEDB"/>
<stop offset="0.206992" stop-color="#ED1C24" stop-opacity="0.8"/>
<stop offset="0.619637" stop-color="#ED1C24" stop-opacity="0.5"/>
<stop offset="0.790876" stop-color="#ED1C24" stop-opacity="0.15"/>
<stop offset="0.880329" stop-color="#ED1C24" stop-opacity="0.15"/>
<stop offset="1" stop-color="#ED1C24" stop-opacity="0.15"/>
</linearGradient>
<linearGradient id="paint2_linear_2693_49" x1="647.912" y1="718.252" x2="376.676" y2="574.028" gradientUnits="userSpaceOnUse">
<stop stop-color="#DB5461"/>
<stop offset="1" stop-color="#DB5461" stop-opacity="0"/>
</linearGradient>
<linearGradient id="paint3_linear_2693_49" x1="-41.0574" y1="759.177" x2="-150.708" y2="859.935" gradientUnits="userSpaceOnUse">
<stop stop-color="#FFEEDB"/>
<stop offset="1" stop-color="#DB5461" stop-opacity="0"/>
</linearGradient>
<linearGradient id="paint4_linear_2693_49" x1="-93.656" y1="397.873" x2="203.427" y2="-154.25" gradientUnits="userSpaceOnUse">
<stop stop-color="#DB5461"/>
<stop offset="1" stop-color="#DB5461" stop-opacity="0"/>
</linearGradient>
</defs>
</svg>
