<svg width="62" height="44" viewBox="0 0 62 44" fill="currentColor"
    xmlns="http://www.w3.org/2000/svg">
    <path
        d="M13.1504 0.540039C13.2242 0.586791 13.3219 0.655744 13.4434 0.749023C13.7148 0.957513 14.0716 1.25999 14.4873 1.63184C15.317 2.37398 16.3567 3.36943 17.3711 4.38379C18.3856 5.39832 19.3694 6.42552 20.0869 7.23047C20.4468 7.63425 20.7329 7.97531 20.9219 8.22656C20.9736 8.29534 21.0153 8.35381 21.0479 8.40234C21.0322 8.42243 21.0166 8.44594 20.9971 8.46973C20.882 8.60973 20.7187 8.7896 20.5195 8.99805C20.1224 9.41355 19.6033 9.92068 19.084 10.415C18.5655 10.9086 18.0509 11.3856 17.666 11.7393C17.5593 11.8373 17.462 11.9252 17.3779 12.002L12.9863 7.60938L12.6328 7.25586L12.2793 7.60938L9.44824 10.4414C7.54282 12.3469 5.98248 14.5486 5.37988 16.624C5.08511 17.6394 4.95252 18.4965 4.99512 19.3701C5.03759 20.2409 5.25245 21.0977 5.61426 22.1113L5.61523 22.1104C6.35638 24.2191 7.83283 25.8133 9.75391 27.7344C11.745 29.7254 13.9963 31.1239 16.0693 31.8574L16.0713 31.8584C18.204 32.6073 19.8593 32.3359 21.9102 31.7373L21.9131 31.7363C24.0572 31.0993 25.1033 29.9836 27.0469 28.04L29.8779 25.208L30.2529 24.834L29.8574 24.4814L29.8564 24.4805C29.8558 24.4799 29.8546 24.4795 29.8535 24.4785C29.851 24.4762 29.8469 24.4723 29.8418 24.4678C29.8317 24.4587 29.8164 24.4452 29.7969 24.4277C29.7574 24.3924 29.6998 24.3399 29.626 24.2734C29.478 24.1402 29.2658 23.9488 29.0117 23.7168C28.5034 23.2525 27.8263 22.6261 27.1484 21.9775C26.4692 21.3277 25.7953 20.6609 25.291 20.1133C25.0379 19.8384 24.8347 19.602 24.6973 19.418C24.6487 19.353 24.6127 19.2988 24.5859 19.2559C24.6219 19.1971 24.6742 19.12 24.7461 19.0244C24.9258 18.7854 25.1927 18.4721 25.5244 18.1055C26.1858 17.3745 27.0755 16.4638 27.9727 15.5713C28.8686 14.68 29.7663 13.8111 30.4404 13.165C30.7774 12.8421 31.0583 12.575 31.2549 12.3887C31.3531 12.2956 31.4309 12.2234 31.4834 12.1738C31.5095 12.1492 31.5294 12.1299 31.543 12.1172C31.5468 12.1136 31.55 12.11 31.5527 12.1074C31.5621 12.0998 31.5761 12.0896 31.5928 12.0762C31.6306 12.0459 31.6863 12.0007 31.7588 11.9434C31.9041 11.8284 32.1157 11.6632 32.3779 11.4619C32.9032 11.0587 33.6327 10.5123 34.4473 9.94141C36.099 8.78383 38.0289 7.57691 39.3359 7.19043H39.3379C42.0275 6.38513 44.7163 6.40059 47.417 7.23926L47.4199 7.24023C50.1203 8.06295 52.7249 9.71327 55.2314 12.2197C57.7457 14.734 59.4039 17.3557 60.2344 20.0811L60.2354 20.083C61.0733 22.7988 61.0809 25.5203 60.2578 28.2607C59.8547 29.5852 58.6021 31.562 57.4014 33.2568C56.809 34.093 56.2425 34.8424 55.8242 35.3828C55.6152 35.6529 55.4436 35.8707 55.3242 36.0205C55.2646 36.0954 55.218 36.1533 55.1865 36.1924C55.1708 36.2119 55.1584 36.2265 55.1504 36.2363C55.1473 36.2401 55.1444 36.2428 55.1426 36.2451C55.1413 36.2465 55.1401 36.2484 55.1387 36.25L54.8809 36.5312C54.7044 36.7232 54.4513 36.9972 54.1455 37.3262C53.5334 37.9847 52.7106 38.8625 51.8652 39.7383C51.0186 40.6154 50.154 41.486 49.459 42.1338C49.1105 42.4585 48.8126 42.7191 48.585 42.8955C48.5013 42.9604 48.4318 43.008 48.3779 43.043C48.3023 42.9962 48.2013 42.9285 48.0771 42.8359C47.7966 42.6269 47.4264 42.3223 46.9941 41.9473C46.1311 41.1985 45.0452 40.1897 43.9863 39.1523C42.9269 38.1145 41.9012 37.0551 41.1553 36.2061C40.7811 35.7801 40.4858 35.4168 40.293 35.1406C40.2071 35.0176 40.1504 34.9219 40.1152 34.8535C40.1376 34.8197 40.1718 34.7706 40.2256 34.7061C40.3445 34.5633 40.5147 34.3899 40.7266 34.1934C41.1491 33.8013 41.7028 33.3502 42.2598 32.9189C42.8149 32.4891 43.3652 32.0849 43.7773 31.7881C43.9059 31.6955 44.0209 31.613 44.1182 31.5439L48.9043 36.3301L52.7803 32.4541C54.3047 30.9225 55.2297 29.887 55.7871 28.0107V28.0088C56.3858 25.9576 56.6573 24.302 55.9082 22.1689L55.9072 22.168C55.1737 20.0949 53.7753 17.8437 51.7842 15.8525C49.8625 13.9309 48.2679 12.4528 46.1582 11.7119C45.1457 11.3507 44.2899 11.1352 43.4199 11.0928C42.5463 11.0502 41.6892 11.1837 40.6738 11.4785C38.5983 12.0811 36.3967 13.6414 34.4912 15.5469L31.6592 18.3779L31.2852 18.752L31.6807 19.1045L31.6816 19.1055C31.6823 19.106 31.6835 19.1065 31.6846 19.1074C31.6871 19.1097 31.6903 19.1137 31.6953 19.1182C31.7055 19.1273 31.7214 19.1405 31.7412 19.1582C31.7808 19.1937 31.839 19.2467 31.9131 19.3135C32.0614 19.4472 32.2738 19.6386 32.5283 19.8711C33.0379 20.3367 33.7165 20.9646 34.3955 21.6143C35.076 22.2654 35.7514 22.9336 36.2549 23.4805C36.5074 23.7548 36.7087 23.9904 36.8447 24.1729C36.8892 24.2325 36.9227 24.2829 36.9482 24.3232C36.9131 24.3778 36.8647 24.4489 36.7979 24.5352C36.6214 24.7628 36.3601 25.0606 36.0352 25.4092C35.3874 26.1042 34.5167 26.9679 33.6396 27.8145C32.7639 28.6598 31.8871 29.4835 31.2285 30.0957C30.8993 30.4017 30.6246 30.6546 30.4326 30.8311L30.1396 31.0996L30.1387 31.1006C30.1288 31.1086 30.1133 31.121 30.0938 31.1367C30.0547 31.1682 29.9966 31.2149 29.9219 31.2744C29.7722 31.3937 29.5549 31.5656 29.2852 31.7744C28.7448 32.1927 27.9953 32.7592 27.1592 33.3516C25.5696 34.4777 23.7318 35.6502 22.417 36.124L22.1631 36.208C19.4225 37.0312 16.7004 37.0236 13.9844 36.1855L13.9824 36.1846C11.2572 35.3541 8.63627 33.6958 6.12207 31.1816C3.61531 28.6749 1.9653 26.0698 1.14258 23.3691L1.1416 23.3672L0.994141 22.8604C0.30437 20.3299 0.336908 17.8094 1.0918 15.2881L1.09277 15.2861C1.47929 13.9791 2.68614 12.0492 3.84375 10.3975C4.41464 9.58288 4.96007 8.85338 5.36328 8.32812C5.56469 8.06576 5.73071 7.85436 5.8457 7.70898C5.90305 7.63649 5.94823 7.58078 5.97852 7.54297C5.99364 7.52409 6.00502 7.50953 6.0127 7.5C6.01487 7.4973 6.01701 7.49508 6.01855 7.49316C6.03127 7.47966 6.05046 7.4598 6.0752 7.43359C6.1248 7.38103 6.19786 7.30335 6.29102 7.20508C6.47733 7.00853 6.74454 6.72751 7.06738 6.39062C7.71344 5.71648 8.58238 4.81872 9.47363 3.92285C10.366 3.02591 11.276 2.1359 12.0068 1.47461C12.3734 1.14291 12.6868 0.875983 12.9258 0.696289C13.0177 0.627146 13.0926 0.575921 13.1504 0.540039Z"
        fill="currentColor" stroke="currentColor" />
</svg>