<svg width="274" height="102" viewBox="0 0 274 102" fill="currentColor" xmlns="http://www.w3.org/2000/svg">
    <path fill-rule="evenodd" clip-rule="evenodd"
        d="M0.75 100.46C0.75 100.46 22.1128 100.83 29.8718 100.734C37.6307 100.638 49.7755 98.7176 57.3512 94.6849C64.927 90.6195 70.7121 84.8164 74.7066 77.2758C78.7355 69.7352 80.75 60.719 80.75 50.2278C80.75 39.769 78.7528 30.8023 74.7582 23.3271C70.7982 15.8193 65.0992 10.0654 57.6611 6.06556C50.2232 2.03292 42.5725 0.75 31.1471 0.75C19.7217 0.75 0.75 0.75 0.75 0.75V35.75L18.2045 33.75V15.9835H29.8409C37.5544 15.9835 45.8539 17.6466 50.2045 20.1381C54.5552 22.6296 57.7693 25.709 60.3864 31.217C63.0379 36.7249 63.2955 42.7036 63.2955 50.6051C63.2955 58.5719 61.5833 65.8372 58.9318 71.378C56.2803 76.8859 50.3409 81.1638 47.2955 82.4569C44.25 83.75 37.8988 85.2266 29.8409 85.2266H18.2045V67.75L0.75 65.75V100.46Z"
        stroke="currentColor" stroke-width="1.5" fill="currentColor" />
    <path fill-rule="evenodd" clip-rule="evenodd"
        d="M91.75 100.75V42.75C91.75 21.25 111.75 0.75 128.75 0.75L164.482 0.75C171.14 0.75 175.75 4.83163 175.75 11.4643V100.75H159.75V76.75H108.75V100.75H91.75ZM159.75 15.75V59.75H108.75V45.75C108.75 35.75 115.25 15.75 132.75 15.75H159.75Z"
        stroke="currentColor" stroke-width="1.5" fill="currentColor" />
    <path
        d="M188.75 11.5919V100.75H204.125V16.0561H228.725C243.075 16.0561 257.75 20.25 257.75 45.75V100.75H272.75V41.75C272.75 8.25 246.75 1.25 240.25 1.25L201.563 0.75C193.875 0.750003 188.75 5.85205 188.75 11.5919Z"
        stroke="currentColor" stroke-width="1.5" fill="currentColor" />
</svg>