<svg width="367" height="367" viewBox="0 0 367 367" fill="currentColor" xmlns="http://www.w3.org/2000/svg">
<path d="M234.234 52.0519C234.234 38.2468 228.75 25.0073 218.988 15.2457C209.226 5.48402 195.987 1.04226e-06 182.182 0C168.377 -1.04224e-06 155.137 5.48402 145.376 15.2457C135.614 25.0073 130.13 38.2468 130.13 52.0519H131.171C131.171 38.5231 136.545 25.5482 146.112 15.9818C155.678 6.41537 168.653 1.04104 182.182 1.04104C195.711 1.04104 208.685 6.4154 218.252 15.9818C227.818 25.5482 233.193 38.5231 233.193 52.0519H234.234Z" fill="currentColor"/>
<path d="M253.949 61.7965C256.109 48.1614 252.764 34.2267 244.649 23.0584C236.535 11.8898 224.316 4.40221 210.681 2.24263C197.046 0.0830437 183.111 3.42843 171.943 11.5428C160.774 19.6572 153.287 31.8759 151.127 45.511L152.155 45.6739C154.272 32.3115 161.61 20.3371 172.555 12.385C183.5 4.43294 197.156 1.15446 210.518 3.27086C223.88 5.38723 235.855 12.7251 243.807 23.6703C251.759 34.6155 255.037 48.2712 252.921 61.6336L253.949 61.7965Z" fill="currentColor"/>
<path d="M271.898 74.506C276.164 61.3766 275.04 47.0905 268.772 34.79C262.505 22.4897 251.608 13.1828 238.479 8.91679C225.349 4.65082 211.063 5.77515 198.763 12.0425C186.462 18.3098 177.156 29.2068 172.89 42.3362L173.88 42.6578C178.06 29.7911 187.181 19.1121 199.235 12.9701C211.29 6.82809 225.29 5.72622 238.157 9.90689C251.024 14.0876 261.703 23.2083 267.845 35.2626C273.987 47.3169 275.089 61.3175 270.908 74.1843L271.898 74.506Z" fill="currentColor"/>
<path d="M287.638 89.8667C293.905 77.5663 295.03 63.2801 290.764 50.1508C286.498 37.0214 277.191 26.1243 264.89 19.857C252.59 13.5896 238.304 12.4653 225.174 16.7313C212.045 20.9972 201.148 30.3041 194.881 42.6046L195.808 43.0772C201.95 31.0229 212.629 21.902 225.496 17.7214C238.363 13.5407 252.364 14.6426 264.418 20.7846C276.472 26.9266 285.593 37.6056 289.774 50.4724C293.954 63.3392 292.853 77.3398 286.711 89.3941L287.638 89.8667Z" fill="currentColor"/>
<path d="M300.782 107.5C308.895 96.3314 312.24 82.397 310.083 68.7619C307.922 55.1269 300.433 42.9081 289.266 34.7939C278.097 26.6794 264.163 23.334 250.528 25.4936C236.893 27.6532 224.674 35.1409 216.56 46.3093L217.402 46.9213C225.354 35.976 237.328 28.6382 250.691 26.5218C264.053 24.4054 277.709 27.6839 288.654 35.6359C299.598 43.5881 306.938 55.5625 309.053 68.9249C311.169 82.2872 307.892 95.9429 299.938 106.888L300.782 107.5Z" fill="currentColor"/>
<path d="M311.004 126.973C320.764 117.211 326.248 103.971 326.248 90.1662C326.248 76.3613 320.764 63.1216 311.004 53.36C301.241 43.5984 288.002 38.1143 274.197 38.1143C260.392 38.1143 247.152 43.5984 237.391 53.36L238.127 54.0961C247.693 44.5299 260.668 39.1556 274.197 39.1556C287.726 39.1556 300.701 44.5299 310.267 54.0961C319.833 63.6625 325.209 76.6373 325.209 90.1662C325.209 103.695 319.833 116.67 310.267 126.236L311.004 126.973Z" fill="currentColor"/>
<path d="M318.054 147.805C329.223 139.69 336.709 127.471 338.869 113.836C341.029 100.202 337.684 86.2669 329.569 75.0984C321.456 63.93 309.237 56.4423 295.601 54.2827C281.966 52.1231 268.032 55.4684 256.863 63.583L257.475 64.425C268.42 56.4731 282.076 53.1945 295.439 55.3109C308.802 57.4273 320.776 64.7652 328.727 75.7104C336.679 86.6554 339.958 100.311 337.843 113.674C335.724 127.036 328.387 139.01 317.443 146.962L318.054 147.805Z" fill="currentColor"/>
<path d="M321.76 169.482C334.059 163.215 343.366 152.318 347.632 139.189C351.899 126.059 350.774 111.773 344.505 99.4725C338.24 87.1724 327.343 77.8655 314.212 73.5993C301.083 69.3335 286.797 70.4578 274.497 76.7251L274.97 77.6527C287.024 71.5107 301.023 70.4088 313.892 74.5896C326.758 78.7702 337.437 87.8909 343.58 99.9452C349.721 112 350.822 126 346.642 138.867C342.462 151.734 333.34 162.413 321.286 168.555L321.76 169.482Z" fill="currentColor"/>
<path d="M322.026 191.473C335.157 187.207 346.054 177.9 352.32 165.6C358.589 153.3 359.714 139.014 355.447 125.884C351.18 112.755 341.874 101.858 329.575 95.5903C317.273 89.3229 302.987 88.1987 289.857 92.4648L290.179 93.4548C303.046 89.274 317.046 90.3759 329.1 96.5179C341.155 102.66 350.276 113.339 354.456 126.206C358.637 139.073 357.536 153.073 351.395 165.128C345.251 177.182 334.573 186.303 321.707 190.483L322.026 191.473Z" fill="currentColor"/>
<path d="M318.852 213.236C332.487 211.076 344.706 203.589 352.822 192.42C360.934 181.251 364.279 167.317 362.122 153.682C359.962 140.047 352.472 127.828 341.304 119.714C330.136 111.599 316.202 108.254 302.566 110.414L302.731 111.442C316.092 109.325 329.748 112.604 340.693 120.556C351.637 128.508 358.977 140.482 361.092 153.845C363.208 167.207 359.932 180.863 351.977 191.808C344.025 202.753 332.052 210.091 318.691 212.207L318.852 213.236Z" fill="currentColor"/>
<path d="M312.311 234.234C326.116 234.234 339.355 228.75 349.118 218.988C358.878 209.226 364.362 195.987 364.362 182.182C364.362 168.377 358.878 155.137 349.118 145.376C339.355 135.614 326.116 130.13 312.311 130.13V131.171C325.839 131.171 338.815 136.545 348.381 146.112C357.947 155.678 363.321 168.653 363.321 182.182C363.321 195.711 357.947 208.685 348.381 218.252C338.815 227.818 325.839 233.193 312.311 233.193V234.234Z" fill="currentColor"/>
<path d="M302.566 253.949C316.202 256.109 330.136 252.763 341.304 244.649C352.472 236.535 359.962 224.316 362.122 210.681C364.279 197.046 360.934 183.111 352.822 171.943C344.706 160.774 332.487 153.287 318.852 151.127L318.691 152.155C332.052 154.272 344.025 161.609 351.977 172.555C359.932 183.5 363.208 197.156 361.092 210.518C358.977 223.88 351.637 235.855 340.693 243.807C329.748 251.759 316.092 255.037 302.731 252.921L302.566 253.949Z" fill="currentColor"/>
<path d="M289.857 271.898C302.987 276.164 317.273 275.04 329.575 268.772C341.874 262.505 351.18 251.608 355.447 238.479C359.714 225.349 358.589 211.063 352.32 198.763C346.054 186.462 335.157 177.156 322.026 172.89L321.707 173.88C334.573 178.06 345.251 187.181 351.395 199.235C357.536 211.29 358.637 225.29 354.456 238.157C350.276 251.024 341.155 261.703 329.1 267.845C317.046 273.987 303.046 275.089 290.179 270.908L289.857 271.898Z" fill="currentColor"/>
<path d="M274.497 287.638C286.797 293.906 301.083 295.03 314.212 290.764C327.343 286.498 338.24 277.191 344.505 264.89C350.774 252.59 351.899 238.304 347.632 225.174C343.366 212.045 334.059 201.148 321.76 194.881L321.286 195.808C333.34 201.951 342.462 212.629 346.642 225.496C350.822 238.363 349.721 252.363 343.58 264.418C337.437 276.472 326.758 285.593 313.892 289.774C301.023 293.954 287.024 292.853 274.97 286.711L274.497 287.638Z" fill="currentColor"/>
<path d="M256.863 300.782C268.032 308.895 281.966 312.24 295.601 310.083C309.237 307.922 321.456 300.433 329.569 289.266C337.684 278.097 341.029 264.163 338.869 250.528C336.709 236.893 329.223 224.674 318.054 216.56L317.443 217.402C328.387 225.354 335.724 237.328 337.843 250.691C339.958 264.053 336.679 277.709 328.727 288.654C320.776 299.598 308.802 306.938 295.439 309.053C282.076 311.169 268.42 307.892 257.475 299.938L256.863 300.782Z" fill="currentColor"/>
<path d="M237.391 311.004C247.152 320.764 260.392 326.248 274.197 326.248C288.002 326.248 301.241 320.764 311.004 311.004C320.764 301.241 326.248 288.002 326.248 274.197C326.248 260.392 320.764 247.152 311.004 237.391L310.267 238.127C319.833 247.693 325.209 260.668 325.209 274.197C325.209 287.726 319.833 300.701 310.267 310.267C300.701 319.833 287.726 325.209 274.197 325.209C260.668 325.209 247.693 319.833 238.127 310.267L237.391 311.004Z" fill="currentColor"/>
<path d="M216.56 318.054C224.674 329.223 236.893 336.709 250.528 338.869C264.163 341.029 278.097 337.684 289.266 329.569C300.433 321.456 307.922 309.237 310.083 295.601C312.24 281.966 308.895 268.032 300.782 256.863L299.938 257.475C307.892 268.42 311.169 282.076 309.053 295.439C306.938 308.802 299.598 320.776 288.654 328.727C277.709 336.679 264.053 339.958 250.691 337.843C237.328 335.724 225.354 328.387 217.402 317.443L216.56 318.054Z" fill="currentColor"/>
<path d="M194.881 321.76C201.148 334.059 212.045 343.366 225.174 347.632C238.304 351.899 252.59 350.774 264.89 344.505C277.191 338.24 286.498 327.343 290.764 314.215C295.03 301.083 293.905 286.798 287.638 274.497L286.711 274.97C292.853 287.024 293.954 301.023 289.774 313.892C285.593 326.758 276.472 337.437 264.418 343.58C252.364 349.721 238.363 350.822 225.496 346.642C212.629 342.462 201.95 333.34 195.808 321.286L194.881 321.76Z" fill="currentColor"/>
<path d="M172.89 322.026C177.156 335.157 186.462 346.054 198.763 352.32C211.063 358.589 225.349 359.714 238.479 355.447C251.608 351.18 262.505 341.874 268.772 329.575C275.04 317.273 276.164 302.987 271.898 289.857L270.908 290.179C275.089 303.046 273.987 317.046 267.845 329.1C261.703 341.155 251.024 350.276 238.157 354.456C225.29 358.637 211.29 357.536 199.235 351.395C187.181 345.251 178.06 334.573 173.88 321.707L172.89 322.026Z" fill="currentColor"/>
<path d="M151.127 318.852C153.287 332.487 160.774 344.706 171.943 352.822C183.111 360.934 197.046 364.279 210.681 362.122C224.316 359.962 236.535 352.472 244.649 341.304C252.763 330.136 256.109 316.202 253.949 302.566L252.921 302.731C255.037 316.092 251.759 329.748 243.807 340.693C235.855 351.637 223.88 358.977 210.518 361.092C197.156 363.208 183.5 359.932 172.555 351.977C161.609 344.025 154.272 332.052 152.155 318.691L151.127 318.852Z" fill="currentColor"/>
<path d="M130.13 312.311C130.13 326.116 135.614 339.355 145.376 349.118C155.137 358.878 168.377 364.362 182.182 364.362C195.987 364.362 209.226 358.878 218.988 349.118C228.75 339.355 234.234 326.116 234.234 312.311H233.193C233.193 325.839 227.818 338.815 218.252 348.381C208.685 357.947 195.711 363.321 182.182 363.321C168.653 363.321 155.678 357.947 146.112 348.381C136.545 338.815 131.171 325.839 131.171 312.311H130.13Z" fill="currentColor"/>
<path d="M110.414 302.566C108.254 316.202 111.599 330.136 119.714 341.304C127.828 352.472 140.047 359.962 153.682 362.122C167.317 364.279 181.251 360.934 192.42 352.822C203.588 344.706 211.076 332.487 213.236 318.852L212.207 318.691C210.091 332.052 202.753 344.025 191.808 351.977C180.863 359.932 167.207 363.208 153.845 361.092C140.482 358.977 128.508 351.637 120.556 340.693C112.604 329.748 109.325 316.092 111.442 302.731L110.414 302.566Z" fill="currentColor"/>
<path d="M92.4648 289.857C88.1987 302.987 89.3229 317.273 95.5903 329.575C101.858 341.874 112.755 351.18 125.884 355.447C139.014 359.714 153.3 358.589 165.6 352.32C177.9 346.054 187.207 335.157 191.473 322.026L190.483 321.707C186.303 334.573 177.182 345.251 165.128 351.395C153.073 357.536 139.073 358.637 126.206 354.456C113.339 350.276 102.66 341.155 96.5179 329.1C90.3759 317.046 89.274 303.046 93.4548 290.179L92.4648 289.857Z" fill="currentColor"/>
<path d="M76.7251 274.497C70.4578 286.797 69.3335 301.083 73.5993 314.212C77.8655 327.343 87.1724 338.24 99.4725 344.505C111.773 350.774 126.059 351.899 139.189 347.632C152.318 343.366 163.215 334.059 169.482 321.76L168.555 321.286C162.413 333.34 151.734 342.462 138.867 346.642C126 350.822 112 349.721 99.9452 343.58C87.8909 337.437 78.7702 326.758 74.5896 313.892C70.4088 301.023 71.5107 287.024 77.6527 274.97L76.7251 274.497Z" fill="currentColor"/>
<path d="M63.5827 256.863C55.4684 268.032 52.1231 281.966 54.2827 295.601C56.4423 309.237 63.93 321.456 75.0985 329.569C86.2669 337.684 100.201 341.029 113.836 338.869C127.471 336.709 139.69 329.223 147.805 318.054L146.962 317.443C139.01 328.387 127.036 335.724 113.674 337.843C100.311 339.958 86.6554 336.679 75.7104 328.727C64.7652 320.776 57.4273 308.802 55.3109 295.439C53.1945 282.076 56.4731 268.42 64.425 257.475L63.5827 256.863Z" fill="currentColor"/>
<path d="M53.36 237.391C43.5984 247.152 38.1143 260.392 38.1143 274.197C38.1143 288.002 43.5984 301.241 53.36 311.004C63.1216 320.764 76.3613 326.248 90.1662 326.248C103.971 326.248 117.211 320.764 126.972 311.004L126.236 310.267C116.67 319.833 103.695 325.209 90.1662 325.206C76.6373 325.206 63.6625 319.833 54.0961 310.267C44.5299 300.701 39.1553 287.726 39.1553 274.197C39.1553 260.668 44.5299 247.693 54.0961 238.127L53.36 237.391Z" fill="currentColor"/>
<path d="M46.3093 216.56C35.1409 224.674 27.6532 236.893 25.4936 250.528C23.334 264.163 26.6794 278.097 34.7939 289.266C42.9082 300.433 55.1269 307.922 68.762 310.083C82.397 312.24 96.3314 308.895 107.5 300.782L106.888 299.938C95.9429 307.892 82.2872 311.169 68.9249 309.053C55.5625 306.938 43.5882 299.598 35.6359 288.654C27.6839 277.709 24.4054 264.053 26.5218 250.691C28.6382 237.328 35.976 225.354 46.9213 217.402L46.3093 216.56Z" fill="currentColor"/>
<path d="M42.6046 194.881C30.3041 201.148 20.9972 212.045 16.7313 225.174C12.4653 238.304 13.5896 252.59 19.8569 264.89C26.1243 277.191 37.0211 286.498 50.1508 290.764C63.2801 295.03 77.5663 293.905 89.8668 287.638L89.3941 286.711C77.3395 292.852 63.3392 293.954 50.4724 289.774C37.6056 285.593 26.9265 276.472 20.7845 264.418C14.6425 252.364 13.5407 238.363 17.7213 225.496C21.902 212.629 31.0229 201.95 43.0772 195.808L42.6046 194.881Z" fill="currentColor"/>
<path d="M42.3362 172.89C29.2068 177.156 18.3099 186.462 12.0425 198.763C5.77515 211.063 4.65082 225.349 8.91679 238.479C13.1828 251.608 22.4897 262.505 34.79 268.772C47.0905 275.04 61.3766 276.164 74.506 271.898L74.1843 270.908C61.3175 275.089 47.3169 273.987 35.2626 267.845C23.2083 261.703 14.0876 251.024 9.90689 238.157C5.72622 225.29 6.82809 211.29 12.9701 199.235C19.1121 187.181 29.7911 178.06 42.6578 173.88L42.3362 172.89Z" fill="currentColor"/>
<path d="M45.511 151.127C31.8759 153.287 19.6572 160.774 11.5428 171.943C3.42843 183.111 0.0830448 197.046 2.24263 210.681C4.4022 224.316 11.8898 236.535 23.0583 244.649C34.2267 252.764 48.1614 256.109 61.7965 253.949L61.6336 252.921C48.2712 255.037 34.6155 251.759 23.6702 243.807C12.7251 235.855 5.38723 223.88 3.27086 210.518C1.15446 197.156 4.43294 183.5 12.385 172.555C20.3371 161.61 32.3115 154.272 45.6739 152.155L45.511 151.127Z" fill="currentColor"/>
<path d="M52.0519 130.13C38.2468 130.13 25.0073 135.614 15.2457 145.376C5.48402 155.137 1.20688e-06 168.377 0 182.182C-1.20687e-06 195.987 5.48402 209.226 15.2457 218.988C25.0073 228.75 38.2468 234.234 52.0519 234.234V233.193C38.5231 233.193 25.5482 227.818 15.9818 218.252C6.41537 208.685 1.04104 195.711 1.04104 182.182C1.04104 168.653 6.4154 155.678 15.9818 146.112C25.5482 136.545 38.5231 131.171 52.0519 131.171V130.13Z" fill="currentColor"/>
<path d="M61.7965 110.414C48.1614 108.254 34.2267 111.599 23.0584 119.714C11.8898 127.828 4.4022 140.047 2.24263 153.682C0.0830443 167.317 3.42843 181.251 11.5428 192.42C19.6572 203.588 31.8759 211.076 45.511 213.236L45.6739 212.207C32.3115 210.091 20.3371 202.753 12.385 191.808C4.43294 180.863 1.15446 167.207 3.27086 153.845C5.38726 140.482 12.7251 128.508 23.6703 120.556C34.6155 112.604 48.2712 109.325 61.6336 111.442L61.7965 110.414Z" fill="currentColor"/>
<path d="M74.506 92.4648C61.3766 88.1987 47.0905 89.3229 34.79 95.5903C22.4897 101.858 13.1828 112.755 8.91679 125.884C4.65082 139.014 5.77515 153.3 12.0425 165.6C18.3098 177.9 29.2068 187.207 42.3362 191.473L42.6578 190.483C29.7911 186.303 19.1121 177.182 12.9701 165.128C6.82809 153.073 5.72622 139.073 9.90689 126.206C14.0876 113.339 23.2083 102.66 35.2626 96.5179C47.3169 90.3759 61.3175 89.274 74.1843 93.4548L74.506 92.4648Z" fill="currentColor"/>
<path d="M89.8667 76.7251C77.5663 70.4578 63.2801 69.3335 50.1507 73.5993C37.0214 77.8655 26.1243 87.1724 19.857 99.4725C13.5896 111.773 12.4653 126.059 16.7312 139.188C20.9972 152.318 30.3041 163.215 42.6046 169.482L43.0772 168.555C31.0229 162.413 21.902 151.734 17.7213 138.867C13.5407 126 14.6425 112 20.7846 99.9452C26.9266 87.8909 37.6056 78.7702 50.4724 74.5896C63.3392 70.4088 77.3398 71.5107 89.3941 77.6527L89.8667 76.7251Z" fill="currentColor"/>
<path d="M107.5 63.5827C96.3317 55.4684 82.397 52.1231 68.7619 54.2827C55.1268 56.4423 42.9081 63.9297 34.7939 75.0985C26.6794 86.2669 23.334 100.201 25.4936 113.836C27.6532 127.471 35.1409 139.69 46.3093 147.805L46.9213 146.962C35.976 139.01 28.6382 127.036 26.5218 113.673C24.4055 100.311 27.6839 86.6554 35.6362 75.7101C43.5881 64.7652 55.5625 57.4273 68.9249 55.3109C82.2872 53.1945 95.9429 56.4731 106.888 64.425L107.5 63.5827Z" fill="currentColor"/>
<path d="M126.972 53.36C117.211 43.5984 103.971 38.1143 90.1662 38.1143C76.361 38.1143 63.1216 43.5984 53.3597 53.36C43.5981 63.1216 38.1143 76.3613 38.1143 90.1662C38.1143 103.971 43.5981 117.211 53.3597 126.972L54.0958 126.236C44.5296 116.67 39.1553 103.695 39.1553 90.1662C39.1553 76.6373 44.5296 63.6625 54.0961 54.0961C63.6622 44.5296 76.637 39.1553 90.1662 39.1553C103.695 39.1553 116.67 44.5299 126.236 54.0961L126.972 53.36Z" fill="currentColor"/>
<path d="M147.805 46.3093C139.69 35.1409 127.472 27.6532 113.837 25.4936C100.202 23.334 86.2669 26.6794 75.0984 34.7939C63.93 42.9082 56.4423 55.1269 54.2827 68.762C52.1231 82.3971 55.4684 96.3314 63.583 107.5L64.425 106.888C56.4731 95.943 53.1945 82.2873 55.3109 68.9249C57.4273 55.5625 64.7652 43.5882 75.7104 35.6359C86.6554 27.6839 100.311 24.4054 113.674 26.5218C127.036 28.6382 139.01 35.9761 146.962 46.9213L147.805 46.3093Z" fill="currentColor"/>
<path d="M169.482 42.6046C163.215 30.3041 152.318 20.9973 139.189 16.7313C126.059 12.4653 111.773 13.5896 99.4725 19.857C87.1724 26.1243 77.8655 37.0214 73.5993 50.1508C69.3335 63.2801 70.4578 77.5663 76.7251 89.8667L77.6527 89.3941C71.5107 77.3398 70.4088 63.3392 74.5896 50.4724C78.7702 37.6056 87.8909 26.9266 99.9452 20.7846C112 14.6426 126 13.5407 138.867 17.7214C151.734 21.902 162.413 31.0229 168.555 43.0772L169.482 42.6046Z" fill="currentColor"/>
<path d="M191.473 42.3362C187.207 29.2068 177.9 18.3099 165.6 12.0425C153.3 5.77517 139.014 4.6508 125.884 8.91681C112.755 13.1828 101.858 22.4897 95.5903 34.79C89.3229 47.0905 88.1987 61.3766 92.4648 74.506L93.4548 74.1843C89.274 61.3175 90.3759 47.3169 96.5179 35.2626C102.66 23.2083 113.339 14.0876 126.206 9.9069C139.073 5.72623 153.073 6.8281 165.128 12.9701C177.182 19.1121 186.303 29.7911 190.483 42.6578L191.473 42.3362Z" fill="currentColor"/>
<path d="M213.236 45.511C211.076 31.8759 203.589 19.6572 192.42 11.5428C181.251 3.42843 167.317 0.0830463 153.682 2.24263C140.047 4.40221 127.828 11.8898 119.714 23.0583C111.599 34.2267 108.254 48.1614 110.414 61.7965L111.442 61.6336C109.325 48.2712 112.604 34.6152 120.556 23.6702C128.508 12.7251 140.482 5.38723 153.845 3.27083C167.207 1.15446 180.863 4.43294 191.808 12.385C202.753 20.3371 210.091 32.3115 212.207 45.6739L213.236 45.511Z" fill="currentColor"/>
<path d="M322 182C322 259.32 259.32 322 182 322C104.68 322 42 259.32 42 182C42 104.68 104.68 42 182 42C259.32 42 322 104.68 322 182ZM43.4 182C43.4 258.547 105.453 320.6 182 320.6C258.547 320.6 320.6 258.547 320.6 182C320.6 105.453 258.547 43.4 182 43.4C105.453 43.4 43.4 105.453 43.4 182Z" fill="currentColor"/>
</svg>
